<svg width="185" height="75" viewBox="0 0 185 75" fill="none" xmlns="http://www.w3.org/2000/svg">
<g clip-path="url(#clip0_881_12)">
<path d="M101.811 5.55692C94.9589 1.30941 87.09 -0.37988 79.1369 0.853663C71.0455 2.10544 63.5676 6.17977 56.9771 10.9256C53.6232 13.341 50.4227 15.9722 47.3155 18.7036C45.3543 20.4293 48.2179 23.3005 50.1701 21.5869C60.3791 12.6118 73.1601 3.15668 87.469 4.6424C100.596 6.00659 112.231 17.6128 116.887 29.611C119.588 36.5717 119.516 43.9456 116.511 50.8061C113.996 56.5484 109.839 61.4856 104.696 65.004C94.5288 71.9586 81.411 73.025 70.8499 66.3287C60.7551 59.93 54.5677 47.6918 57.6268 35.7271C60.4844 24.5523 70.4469 14.8905 82.2863 15.0273C93.3948 15.1549 104.278 23.4554 106.492 34.6151C107.147 37.9146 107.009 41.5788 105.67 44.6961C104.329 47.8164 101.76 50.0131 98.8001 51.5079C92.8082 54.531 84.5633 55.6096 78.3007 52.8721C72.1674 50.1893 68.7564 44.0034 70.7988 37.4224C72.6908 31.3155 78.2767 24.5644 85.2431 25.4273C88.7655 25.8618 92.0863 27.8336 94.989 29.7872C97.6541 31.5798 98.7881 34.4419 97.1126 37.4255C95.5124 40.2754 91.9118 41.5758 88.8166 41.5241C86.5065 41.4846 83.3361 40.5397 82.5841 38.0179C82.0607 36.2527 83.0864 33.6063 85.1439 33.658C87.7428 33.7218 87.7398 29.6444 85.1439 29.5806C81.9133 29.5016 79.3625 32.0538 78.6557 35.1285C77.8615 38.58 79.3716 41.7702 82.2352 43.7086C88.3173 47.8286 98.4512 45.1275 101.213 38.1668C102.656 34.533 101.901 30.3615 98.9595 27.7364C95.9425 25.0475 91.7765 22.8204 87.8781 21.8148C79.534 19.6637 72.375 25.0961 68.606 32.2908C66.6027 36.116 65.5078 40.4941 66.4342 44.7933C67.2043 48.3724 69.4302 51.5748 72.2246 53.8504C78.8271 59.2252 88.0015 59.3011 95.8312 57.0042C99.528 55.9195 103.162 54.1694 105.926 51.4076C108.853 48.4818 110.384 44.611 110.79 40.5184C111.506 33.2873 108.588 26.1231 103.799 20.8395C99.2363 15.8051 92.8593 12.2989 86.1666 11.2932C79.2242 10.2511 72.1885 11.9738 66.4583 16.0755C54.7362 24.4672 49.5143 40.2541 55.1573 53.7988C60.7401 67.1976 74.8776 76.2456 89.3099 74.8662C104.365 73.4261 118.042 62.3181 121.95 47.4305C126.239 31.0907 115.317 13.9335 101.82 5.563" fill="#ECE7E1"/>
<path d="M167.229 55.6611H19.5039V66.3407H167.229V55.6611Z" fill="#78353E"/>
<path d="M12.3118 42.8913C12.1794 44.0246 12.1132 44.9574 11.9147 45.9539C11.7824 46.6862 11.7162 47.4852 11.4545 48.2175C11.1898 48.8828 10.8619 49.1502 10.0708 49.1502C9.87229 49.1502 9.6106 49.0834 9.3459 49.0165C7.63135 48.6155 7.17113 48.1506 7.10495 46.352C7.03877 44.5533 7.17112 42.7546 7.2373 40.956L7.30348 39.291C7.502 34.6941 7.56818 30.1002 8.22693 25.5701C8.62398 22.8387 9.48126 20.3746 10.7988 17.9774C11.9207 15.9114 14.2279 14.848 16.535 15.3797C17.7231 15.6471 18.8421 16.1788 19.8317 16.8442C20.8875 17.5095 21.4801 18.576 21.811 19.7761C22.0757 20.7088 22.208 21.6416 22.3374 22.5744C22.6021 24.2393 22.6683 25.9043 22.6683 27.5693C22.6683 31.7652 22.9991 35.8942 23.1285 40.0901C23.1947 42.7546 22.9961 45.6197 22.3374 47.8833C22.1389 48.5486 21.6786 48.8828 21.0199 48.8828C20.6228 48.8828 20.2288 48.816 19.8317 48.7492C17.9848 48.4149 17.7201 48.0169 17.5908 46.1514C17.4584 44.4864 17.5908 44.2859 17.657 41.9556L12.3148 42.8883L12.3118 42.8913ZM18.445 29.6384C18.5112 28.6388 18.5774 27.6392 18.5774 26.6396C18.5774 20.7787 18.8421 20.4445 17.5878 18.5122C16.7305 17.1814 15.0821 19.0439 14.8174 20.244C14.6189 21.0431 14.4204 21.8421 14.3572 22.6412C14.1587 24.9047 13.8308 27.1044 13.6323 29.368C12.8412 38.6256 12.7088 38.8261 12.5103 40.4911C13.4337 40.2906 16.4658 39.692 17.7863 39.5584C18.3127 36.0947 18.1834 33.7643 18.445 29.6353V29.6384Z" fill="#78353E"/>
<path d="M44.6236 18.5153C44.1634 22.7112 42.7767 26.4422 40.3372 29.9058C38.5565 32.3699 36.511 34.4359 34.0716 36.4321C33.6745 36.7663 33.5452 36.8331 33.2805 37.1643C36.7757 40.0962 38.5565 43.5599 39.7416 47.3547C40.0725 48.3543 39.7416 48.6855 38.6196 48.6855C37.63 48.6855 36.9051 48.3512 36.508 47.3547C36.114 46.2214 35.7169 45.0912 35.2537 44.0247C34.3303 41.6944 33.6053 40.5611 32.7481 40.2269L32.5495 41.7582C32.4834 42.2899 32.4834 42.7578 32.4172 43.2226C31.6923 48.3512 32.2187 50.0831 30.0439 50.4173L29.5837 50.4841C27.078 50.551 26.5516 50.1499 26.4854 47.619C26.3531 43.3563 26.5516 38.9599 26.5516 34.5635C26.5516 33.5639 26.6178 32.4975 26.684 31.3672C26.9487 27.4387 27.1442 23.5072 27.4089 19.5119C27.4751 18.5123 27.6736 17.6464 27.9353 16.6468C28.1338 15.8477 28.5279 15.5803 29.3851 15.714C30.1762 15.8477 31.0335 16.1789 31.8246 16.5131C32.6819 16.8473 32.8804 18.0444 33.0128 19.6425C33.1451 21.2407 33.3436 29.7661 33.2775 30.4315C35.7831 28.6328 37.6962 24.9686 38.4211 22.2402C38.8813 20.4416 39.2784 18.5761 39.8048 16.7774C40.265 15.1124 40.5959 14.9119 42.2443 15.3798L42.7045 15.5135C44.4852 16.0452 44.8161 16.7136 44.6176 18.5123L44.6236 18.5153Z" fill="#644C5C"/>
<path d="M53.1931 42.8913C53.0608 44.0246 52.9946 44.9574 52.7961 45.9539C52.6637 46.6862 52.5975 47.4852 52.3358 48.2175C52.0711 48.8828 51.7433 49.1502 50.9522 49.1502C50.7536 49.1502 50.4919 49.0834 50.2272 49.0165C48.5127 48.6155 48.0525 48.1506 47.9863 46.352C47.9201 44.5533 48.0525 42.7546 48.1186 40.956L48.1848 39.291C48.3834 34.6941 48.4495 30.1002 49.1083 25.5701C49.5053 22.8387 50.3626 20.3746 51.6801 17.9774C52.8021 15.9114 55.1092 14.848 57.4163 15.3797C58.6045 15.6471 59.7234 16.1788 60.7131 16.8442C61.7689 17.5095 62.3614 18.576 62.6923 19.7761C62.957 20.7088 63.0894 21.6416 63.2187 22.5744C63.4834 24.2393 63.5496 25.9043 63.5496 27.5693C63.5496 31.7652 63.8805 35.8942 64.0098 40.0901C64.076 42.7546 63.8775 45.6197 63.2187 47.8833C63.0202 48.5486 62.56 48.8828 61.9012 48.8828C61.5042 48.8828 61.1101 48.816 60.7131 48.7492C58.8662 48.4149 58.6015 48.0169 58.4721 46.1514C58.3398 44.4864 58.4721 44.2859 58.5383 41.9556L53.1961 42.8883L53.1931 42.8913ZM59.3264 29.6384C59.3926 28.6388 59.4587 27.6392 59.4587 26.6396C59.4587 20.7787 59.7234 20.4445 58.4691 18.5122C57.6118 17.1814 55.9635 19.0439 55.6988 20.244C55.5002 21.0431 55.3017 21.8421 55.2385 22.6412C55.04 24.9047 54.7121 27.1044 54.5136 29.368C53.7225 38.6256 53.5902 38.8261 53.3916 40.4911C54.3151 40.2906 57.3471 39.692 58.6676 39.5584C59.194 36.0947 59.0647 33.7643 59.3264 29.6353V29.6384Z" fill="#C99D7A"/>
<path d="M112.077 35.8304C112.474 35.9641 112.736 36.2953 112.408 36.6295C111.882 37.2949 110.429 36.7632 109.704 37.1612C109.112 38.1608 109.506 39.3579 109.307 40.4243C109.109 41.6244 108.976 42.7547 108.847 43.8879C108.714 45.0212 108.516 46.1515 108.582 47.3516C109.704 47.6189 111.945 46.4857 111.945 47.8164C111.879 49.3477 107.593 49.214 106.01 48.9497C104.954 48.7492 104.362 48.1506 104.163 47.151C103.965 46.4857 103.899 45.6866 103.833 45.0212C102.843 36.4289 102.843 36.0279 102.843 35.2957C102.843 32.3637 103.108 28.9669 102.843 26.038C102.578 23.7077 102.843 21.3743 103.435 19.1107C103.833 17.5794 104.885 16.5799 106.6 16.4462C108.775 16.2456 110.886 16.3125 112.995 16.7135C113.786 16.9141 115.368 17.6463 115.106 18.3785C114.974 18.6459 114.643 18.8434 114.382 18.8434C113.127 19.1107 110.688 19.1776 110.294 19.2444C109.701 19.3113 109.37 19.6424 109.37 20.1103V21.1099C109.503 27.9035 109.503 33.1658 109.764 35.2957C109.764 35.6299 111.81 35.6967 112.071 35.8274L112.077 35.8304Z" fill="#78353E"/>
<path d="M130.08 25.5064C130.477 23.7746 130.938 22.1765 131.464 20.5115C131.729 19.6456 131.99 18.8465 132.387 17.9806C133.112 16.3825 134.036 14.918 135.883 14.9849C137.862 15.0517 139.643 15.7171 140.629 17.7831C141.553 19.7823 141.817 21.9122 141.884 24.045C142.016 27.6424 141.817 31.2397 141.423 34.834L140.235 46.5557C140.169 47.0874 140.037 47.6889 139.904 48.1538C139.441 49.7519 138.322 49.7519 136.343 49.4208C135.221 49.2202 135.025 48.8891 134.959 47.5553C134.827 44.6233 134.628 41.7613 134.628 38.8293C134.628 32.9016 134.231 26.8402 135.486 21.1799C135.618 20.5814 136.277 16.8504 135.089 17.85C134.628 18.251 134.099 20.3809 134.033 20.6482C132.778 25.7768 132.649 28.5083 131.987 31.7045C130.799 37.5654 130.865 37.1674 130.67 37.6322C130.143 38.8323 128.23 37.8996 127.241 36.8332C126.582 36.1009 126.251 24.9109 125.46 24.1119C125.261 23.8445 125.195 24.8441 125.195 25.1783C125.195 30.2401 125.195 35.1013 124.997 40.1631C124.931 42.1623 124.666 44.1585 124.47 46.1576C124.338 47.4884 123.878 49.0227 122.756 48.9559C120.316 48.8222 119.591 48.8891 119.261 46.8261C118.996 45.2279 118.8 43.6298 118.734 42.0317C118.536 37.4347 118.337 32.9745 118.933 28.4445C119.327 25.4487 119.525 24.5828 120.383 22.7841C121.832 19.7216 123.878 19.2537 126.648 21.186C127.903 22.0519 128.694 23.3827 129.154 24.917L129.746 26.9162L130.077 25.5186L130.08 25.5064Z" fill="#644C5C"/>
<path d="M158.569 23.2428L157.778 24.5098C155.997 27.8397 155.14 31.2365 154.084 34.8339C153.425 37.0305 153.028 39.3639 152.502 41.6275C152.104 43.493 151.71 45.3585 151.38 47.2878C151.247 48.2874 150.522 48.9528 148.808 48.9528C147.424 49.0196 146.961 48.6854 146.699 47.3546L146.633 46.6224C145.511 25.0415 145.183 27.3749 145.183 17.5157C145.183 17.382 145.249 16.8503 145.382 16.7166C146.57 15.5165 149.271 15.7838 149.602 18.1142C149.867 19.9129 149.999 21.8452 150.128 23.7077C150.327 26.904 150.128 31.7682 150.393 33.7644C150.459 34.2292 150.591 34.3629 150.853 33.8312L151.25 32.8985C152.306 29.6354 153.954 26.1717 156.262 21.7085L157.778 18.5791C158.502 17.1814 159.757 16.8472 161.074 16.8472C161.865 16.8472 162.458 17.8468 162.855 18.7127C163.514 20.3109 163.712 21.6447 163.911 23.7077C164.437 28.4352 164.176 33.7644 164.176 38.7593C164.176 40.7585 163.845 46.0208 163.384 47.9501C163.186 48.8829 162.858 49.6151 161.868 49.8156C161.471 49.9493 160.945 49.8825 160.352 49.8156C158.638 49.5483 158.77 45.4192 158.704 42.9552L158.572 36.429C158.505 32.9653 158.505 28.97 158.704 26.1049C158.77 25.239 158.77 24.3731 158.77 23.5072C158.77 23.4403 158.77 23.1061 158.572 23.2398L158.569 23.2428Z" fill="#C99D7A"/>
<path d="M175.834 30.4376C172.932 30.0365 169.241 28.7057 168.119 26.1749C167.063 23.7776 167.46 21.2468 168.976 19.1807C170.032 17.7163 171.283 16.9172 172.799 15.9845C174.382 15.0517 178.536 14.5868 180.382 14.7843C182.296 14.9849 182.954 16.7835 183.02 20.1803L183.219 39.0967C183.219 41.9618 183.153 44.757 183.418 47.5552C183.484 48.2206 183.418 49.0197 182.229 49.0197C181.372 49.0197 179.327 48.8192 178.668 48.2206C178.469 48.0201 178.403 47.7558 178.337 47.4884C178.139 46.823 178.006 46.024 178.006 45.3555C178.006 42.8915 177.874 40.4274 177.874 37.9634C177.874 36.4321 177.808 34.9008 177.609 33.0353C176.619 34.4329 175.828 35.4993 175.434 36.7663C174.709 38.963 174.051 41.1627 173.389 43.4262L172.399 46.823C172.267 47.2879 172.005 47.6889 171.476 47.7558C166.991 48.3543 167.653 47.8226 168.772 43.4262C169.298 41.2964 171.013 37.2312 172.068 35.3657C173.058 33.5002 174.309 31.9689 175.828 30.4376H175.834ZM177.549 28.5052C178.208 28.3047 178.142 27.3719 178.142 26.1749C178.142 21.7116 178.208 18.9134 177.811 18.3817C176.755 17.0509 172.866 18.3817 172.008 19.5818C170.625 21.5141 170.886 23.7108 171.677 25.3089C172.468 26.9071 174.117 28.174 175.898 28.5052C176.49 28.6389 177.086 28.7057 177.546 28.5052H177.549Z" fill="#839389"/>
<path d="M75.374 38.6349C71.3162 39.0025 69.0091 39.4005 68.4587 39.8289C67.6676 40.4518 67.2705 41.4726 67.2705 42.8915C67.2705 43.3047 67.3006 43.7301 67.3638 44.1645C67.3487 44.7327 67.3427 45.2188 67.3427 45.6229C67.3427 46.9537 67.475 47.8439 67.7398 48.2875C68.0045 48.7311 68.6181 49.0653 69.5867 49.2871C69.9386 49.3752 70.1792 49.4208 70.3116 49.4208C70.7086 49.4208 71.0034 49.3539 71.2019 49.2202C71.4005 49.0866 71.5659 48.8435 71.6953 48.488C71.8276 48.1325 71.9269 47.7102 71.993 47.2241C72.0592 46.7349 72.1134 46.4038 72.1585 46.2245C72.1886 46.0088 72.2608 45.4528 72.3781 44.5534L73.7377 44.4927C76.111 44.4046 77.8706 44.359 79.0137 44.359C80.7733 44.3165 83.276 44.1585 86.5306 43.8941C88.9039 43.7179 90.6846 43.6055 91.8728 43.5599C92.6188 43.5143 93.2565 43.4657 93.7799 43.4202L93.7167 44.8269C93.7167 45.316 93.7378 45.7384 93.7829 46.0939C93.8701 47.0266 94.0355 47.6464 94.2792 47.9594C94.5198 48.2693 95.1034 48.5154 96.0268 48.6916C96.5532 48.7797 96.9503 48.8253 97.215 48.8253C97.9188 48.8253 98.358 48.4911 98.5355 47.8257C98.8904 46.6347 99.125 45.2127 99.2424 43.5599C99.3446 42.8885 99.3958 42.3325 99.3958 41.898C99.3958 40.2543 98.8694 39.1909 97.8136 38.7017C97.1969 38.3918 96.2103 38.1913 94.8477 38.1032C93.4911 38.0667 92.2759 38.0363 91.202 38.0151C91.19 37.4135 91.175 36.8484 91.1539 36.3197C91.1088 35.1864 91.0667 34.2658 91.0215 33.5549C90.8471 30.5348 90.7568 28.2713 90.7568 26.7613C90.7568 24.8076 90.6486 23.1427 90.426 21.7663C90.2515 20.5237 90.074 19.5909 89.8996 18.9681C89.5476 17.5917 88.8889 16.6134 87.9203 16.0361C86.8224 15.3252 85.7215 14.836 84.6236 14.5717C84.0972 14.4836 83.7001 14.438 83.4354 14.438C81.5223 14.438 79.7807 15.4528 78.8843 17.1694C77.5668 19.6122 76.7096 22.1431 76.3125 24.7621C76.0057 26.8919 75.7951 29.1585 75.6868 31.5557C75.5755 33.9529 75.5004 35.4173 75.4552 35.9521C75.4552 37.061 75.4342 37.9057 75.3891 38.483L75.383 38.6409L75.374 38.6349ZM85.9621 37.9938C84.3167 38.0363 82.5811 38.1153 80.7553 38.2277C81.0892 35.2168 81.408 31.9932 81.7118 28.5538L82.1089 25.157C82.2834 23.7807 82.3947 22.6717 82.4398 21.8271C82.4849 21.2954 82.6383 20.4963 82.9 19.4299C82.9872 18.9407 83.2519 18.4516 83.6911 17.9654C84.1303 17.4763 84.5484 17.2332 84.9454 17.2332C85.2522 17.2332 85.4959 17.3882 85.6703 17.6981C86.1095 18.3634 86.3862 18.9407 86.4945 19.4299C86.6028 19.919 86.66 20.7394 86.66 21.8939V25.8224C86.66 26.4878 86.6148 27.4874 86.5276 28.8212L86.3291 32.616C86.2539 34.758 86.1336 36.5506 85.9651 37.9938" fill="#839389"/>
<path d="M32.4923 63.8769C32.0561 63.6399 31.7162 63.3148 31.4696 62.9016C31.2229 62.4884 31.0996 62.0205 31.0996 61.504C31.0996 60.9875 31.2229 60.5196 31.4696 60.1064C31.7162 59.6902 32.0561 59.3651 32.4923 59.1311C32.9285 58.8941 33.4158 58.7756 33.9602 58.7756C34.5046 58.7756 34.9889 58.8941 35.4221 59.1311C35.8552 59.3681 36.1951 59.6932 36.4448 60.1064C36.6945 60.5196 36.8178 60.9875 36.8178 61.504C36.8178 62.0205 36.6945 62.4884 36.4448 62.9016C36.1951 63.3179 35.8552 63.643 35.4221 63.8769C34.9889 64.1109 34.5016 64.2324 33.9602 64.2324C33.4188 64.2324 32.9285 64.1139 32.4923 63.8769ZM34.7934 62.9745C35.0431 62.8317 35.2386 62.6312 35.38 62.376C35.5213 62.1208 35.5935 61.8291 35.5935 61.501C35.5935 61.1728 35.5213 60.8842 35.38 60.6259C35.2386 60.3707 35.0431 60.1702 34.7934 60.0274C34.5437 59.8846 34.267 59.8117 33.9572 59.8117C33.6474 59.8117 33.3706 59.8846 33.121 60.0274C32.8713 60.1702 32.6758 60.3707 32.5344 60.6259C32.393 60.8812 32.3208 61.1728 32.3208 61.501C32.3208 61.8291 32.393 62.1208 32.5344 62.376C32.6758 62.6312 32.8713 62.8317 33.121 62.9745C33.3706 63.1173 33.6474 63.1903 33.9572 63.1903C34.267 63.1903 34.5437 63.1173 34.7934 62.9745Z" fill="#ECE7E1"/>
<path d="M38.7792 63.883C38.349 63.649 38.0091 63.3239 37.7655 62.9107C37.5188 62.4945 37.3955 62.0266 37.3955 61.504C37.3955 60.9814 37.5188 60.5135 37.7655 60.0973C38.0121 59.6841 38.349 59.359 38.7792 59.125C39.2093 58.8911 39.6936 58.7756 40.232 58.7756C40.6862 58.7756 41.0953 58.8546 41.4593 59.0157C41.8263 59.1767 42.1331 59.4076 42.3797 59.7084L41.6037 60.4315C41.2517 60.0183 40.8126 59.8147 40.2892 59.8147C39.9643 59.8147 39.6786 59.8876 39.4229 60.0304C39.1702 60.1732 38.9717 60.3738 38.8303 60.629C38.6889 60.8842 38.6168 61.1759 38.6168 61.504C38.6168 61.8321 38.6889 62.1238 38.8303 62.379C38.9717 62.6343 39.1702 62.8348 39.4229 62.9776C39.6756 63.1204 39.9643 63.1933 40.2892 63.1933C40.8126 63.1933 41.2487 62.9837 41.6037 62.5674L42.3797 63.2905C42.1301 63.5974 41.8233 63.8313 41.4533 63.9924C41.0833 64.1534 40.6742 64.2324 40.223 64.2324C39.6906 64.2324 39.2093 64.1169 38.7792 63.883Z" fill="#ECE7E1"/>
<path d="M44.0851 63.8769C43.6489 63.6399 43.309 63.3148 43.0624 62.9016C42.8157 62.4884 42.6924 62.0205 42.6924 61.504C42.6924 60.9875 42.8157 60.5196 43.0624 60.1064C43.309 59.6902 43.6489 59.3651 44.0851 59.1311C44.5212 58.8941 45.0085 58.7756 45.553 58.7756C46.0974 58.7756 46.5817 58.8941 47.0149 59.1311C47.448 59.3681 47.7879 59.6932 48.0376 60.1064C48.2872 60.5196 48.4106 60.9875 48.4106 61.504C48.4106 62.0205 48.2872 62.4884 48.0376 62.9016C47.7879 63.3179 47.448 63.643 47.0149 63.8769C46.5817 64.1109 46.0944 64.2324 45.553 64.2324C45.0115 64.2324 44.5212 64.1139 44.0851 63.8769ZM46.3862 62.9745C46.6359 62.8317 46.8314 62.6312 46.9727 62.376C47.1141 62.1208 47.1863 61.8291 47.1863 61.501C47.1863 61.1728 47.1141 60.8842 46.9727 60.6259C46.8314 60.3707 46.6359 60.1702 46.3862 60.0274C46.1365 59.8846 45.8598 59.8117 45.55 59.8117C45.2401 59.8117 44.9634 59.8846 44.7137 60.0274C44.4641 60.1702 44.2686 60.3707 44.1272 60.6259C43.9858 60.8812 43.9136 61.1728 43.9136 61.501C43.9136 61.8291 43.9858 62.1208 44.1272 62.376C44.2686 62.6312 44.4641 62.8317 44.7137 62.9745C44.9634 63.1173 45.2401 63.1903 45.55 63.1903C45.8598 63.1903 46.1365 63.1173 46.3862 62.9745Z" fill="#ECE7E1"/>
<path d="M52.8776 61.8837C53.049 62.1085 53.1363 62.3667 53.1363 62.6645C53.1363 62.9866 53.031 63.2661 52.8234 63.5C52.6159 63.737 52.3331 63.9163 51.9752 64.0439C51.6202 64.1684 51.2292 64.2323 50.8081 64.2323C50.4501 64.2323 50.0922 64.1867 49.7372 64.0955C49.3823 64.0044 49.0454 63.8677 48.7266 63.6793L49.0995 62.8043C49.3282 62.944 49.5808 63.0504 49.8576 63.1233C50.1343 63.1962 50.405 63.2327 50.6667 63.2327C51.0247 63.2327 51.3225 63.1689 51.5601 63.0352C51.7977 62.9045 51.915 62.7222 51.915 62.4852C51.915 62.2878 51.8338 62.1419 51.6714 62.0417C51.5089 61.9414 51.2894 61.8897 51.0096 61.8897H49.7342V60.9691H50.9224C51.166 60.9691 51.3555 60.9175 51.4939 60.8172C51.6323 60.717 51.6984 60.5772 51.6984 60.404C51.6984 60.1974 51.5992 60.0364 51.4037 59.9209C51.2081 59.8055 50.9555 59.7477 50.6457 59.7477C50.417 59.7477 50.1794 59.7781 49.9358 59.8419C49.6921 59.9057 49.4605 59.9999 49.2409 60.1245L48.874 59.1735C49.4274 58.8879 50.023 58.7451 50.6667 58.7451C51.0758 58.7451 51.4518 58.8059 51.7947 58.9274C52.1376 59.0489 52.4113 59.2252 52.6159 59.4561C52.8204 59.687 52.9227 59.9574 52.9227 60.2643C52.9227 60.5164 52.8565 60.7382 52.7212 60.9357C52.5858 61.1332 52.4023 61.2821 52.1677 61.3884C52.4715 61.4948 52.7091 61.6588 52.8806 61.8806L52.8776 61.8837Z" fill="#ECE7E1"/>
<path d="M58.8816 58.8635V64.141H57.6723V61.9778H55.299V64.141H54.0898V58.8635H55.299V60.9447H57.6723V58.8635H58.8816Z" fill="#ECE7E1"/>
<path d="M63.7241 63.0108H61.2997L60.8365 64.141H59.5972L61.9253 58.8635H63.1195L65.4567 64.141H64.1873L63.7241 63.0108ZM63.3421 62.0841L62.5149 60.0636L61.6877 62.0841H63.3451H63.3421Z" fill="#ECE7E1"/>
<path d="M70.9436 58.8635V64.141H69.7344V61.9778H67.3611V64.141H66.1519V58.8635H67.3611V60.9447H69.7344V58.8635H70.9436Z" fill="#ECE7E1"/>
<path d="M77.0407 58.8635V64.141H75.8315V61.9778H73.4582V64.141H72.249V58.8635H73.4582V60.9447H75.8315V58.8635H77.0407Z" fill="#ECE7E1"/>
<path d="M79.3717 63.8767C78.9355 63.6397 78.5956 63.3146 78.349 62.9014C78.1023 62.4882 77.979 62.0203 77.979 61.5038C77.979 60.9873 78.1023 60.5194 78.349 60.1062C78.5956 59.6899 78.9355 59.3648 79.3717 59.1309C79.8079 58.8939 80.2952 58.7754 80.8396 58.7754C81.384 58.7754 81.8683 58.8939 82.3015 59.1309C82.7346 59.3679 83.0745 59.693 83.3242 60.1062C83.5739 60.5194 83.6972 60.9873 83.6972 61.5038C83.6972 62.0203 83.5739 62.4882 83.3242 62.9014C83.0745 63.3176 82.7346 63.6427 82.3015 63.8767C81.8683 64.1106 81.381 64.2321 80.8396 64.2321C80.2982 64.2321 79.8079 64.1137 79.3717 63.8767ZM81.6728 62.9743C81.9225 62.8315 82.118 62.631 82.2594 62.3758C82.4007 62.1205 82.4729 61.8289 82.4729 61.5007C82.4729 61.1726 82.4007 60.884 82.2594 60.6257C82.118 60.3705 81.9225 60.17 81.6728 60.0272C81.4231 59.8844 81.1464 59.8114 80.8366 59.8114C80.5268 59.8114 80.25 59.8844 80.0004 60.0272C79.7507 60.17 79.5552 60.3705 79.4138 60.6257C79.2724 60.8809 79.2002 61.1726 79.2002 61.5007C79.2002 61.8289 79.2724 62.1205 79.4138 62.3758C79.5552 62.631 79.7507 62.8315 80.0004 62.9743C80.25 63.1171 80.5268 63.19 80.8366 63.19C81.1464 63.19 81.4231 63.1171 81.6728 62.9743Z" fill="#ECE7E1"/>
<path d="M88.3087 59.8601H85.8241L85.8301 64.141H84.627V58.8635H88.3147L88.3087 59.8601Z" fill="#ECE7E1"/>
<path d="M89.5538 63.8769C89.1177 63.6399 88.7778 63.3148 88.5311 62.9016C88.2845 62.4884 88.1611 62.0205 88.1611 61.504C88.1611 60.9875 88.2845 60.5196 88.5311 60.1064C88.7778 59.6902 89.1177 59.3651 89.5538 59.1311C89.99 58.8941 90.4773 58.7756 91.0217 58.7756C91.5662 58.7756 92.0505 58.8941 92.4836 59.1311C92.9168 59.3681 93.2567 59.6932 93.5063 60.1064C93.756 60.5196 93.8793 60.9875 93.8793 61.504C93.8793 62.0205 93.756 62.4884 93.5063 62.9016C93.2567 63.3179 92.9168 63.643 92.4836 63.8769C92.0505 64.1139 91.5632 64.2324 91.0217 64.2324C90.4803 64.2324 89.99 64.1139 89.5538 63.8769ZM91.8549 62.9745C92.1046 62.8317 92.3001 62.6312 92.4415 62.376C92.5829 62.1208 92.6551 61.8291 92.6551 61.501C92.6551 61.1728 92.5829 60.8842 92.4415 60.6259C92.3001 60.3707 92.1046 60.1702 91.8549 60.0274C91.6053 59.8846 91.3285 59.8117 91.0187 59.8117C90.7089 59.8117 90.4322 59.8846 90.1825 60.0274C89.9328 60.1702 89.7373 60.3707 89.5959 60.6259C89.4546 60.8812 89.3824 61.1728 89.3824 61.501C89.3824 61.8291 89.4546 62.1208 89.5959 62.376C89.7373 62.6312 89.9328 62.8317 90.1825 62.9745C90.4322 63.1173 90.7089 63.1903 91.0187 63.1903C91.3285 63.1903 91.6053 63.1173 91.8549 62.9745Z" fill="#ECE7E1"/>
<path d="M101.679 64.1413L101.67 60.9815L100.133 63.5822H99.5944L98.0573 61.0422V64.1413H96.9233V58.8638H97.922L99.8772 62.1421L101.802 58.8638H102.801L102.81 64.1413H101.676H101.679Z" fill="#ECE7E1"/>
<path d="M107.65 63.011H105.225L104.762 64.1413H103.523L105.851 58.8638H107.045L109.383 64.1413H108.113L107.65 63.011ZM107.268 62.0843L106.441 60.0639L105.613 62.0843H107.271H107.268Z" fill="#ECE7E1"/>
<path d="M113.807 59.8603H112.134V64.1413H110.94V59.8603H109.277V58.8638H113.807V59.8603Z" fill="#ECE7E1"/>
<path d="M118.614 63.1628V64.1442H114.568V58.8667H118.517V59.8481H115.771V60.9935H118.195V61.9445H115.771V63.1659H118.614V63.1628Z" fill="#ECE7E1"/>
<path d="M123.057 59.0977C123.396 59.2527 123.661 59.4745 123.845 59.7601C124.028 60.0457 124.121 60.3859 124.121 60.7779C124.121 61.1698 124.028 61.504 123.845 61.7927C123.661 62.0813 123.399 62.3031 123.057 62.455C122.717 62.6069 122.314 62.6859 121.85 62.6859H120.798V64.1413H119.588V58.8638H121.85C122.314 58.8638 122.714 58.9428 123.057 59.0977ZM122.611 61.4524C122.801 61.2944 122.894 61.0696 122.894 60.7779C122.894 60.4862 122.801 60.2553 122.611 60.0943C122.422 59.9363 122.145 59.8573 121.784 59.8573H120.798V61.6894H121.784C122.148 61.6894 122.422 61.6104 122.611 61.4524Z" fill="#ECE7E1"/>
<path d="M124.919 58.8638H126.119V62.3001L128.612 58.8638H129.746V64.1413H128.552V60.711L126.059 64.1413H124.916V58.8638H124.919Z" fill="#ECE7E1"/>
<path d="M135.841 58.8638V64.1413H134.631V61.978H132.258V64.1413H131.049V58.8638H132.258V60.945H134.631V58.8638H135.841Z" fill="#ECE7E1"/>
<path d="M138.172 63.883C137.742 63.649 137.402 63.3239 137.158 62.9107C136.911 62.4945 136.788 62.0266 136.788 61.504C136.788 60.9814 136.911 60.5135 137.158 60.0973C137.405 59.6841 137.742 59.359 138.172 59.125C138.602 58.8911 139.086 58.7756 139.625 58.7756C140.076 58.7756 140.488 58.8546 140.852 59.0157C141.219 59.1767 141.526 59.4076 141.772 59.7084L140.996 60.4315C140.644 60.0183 140.205 59.8147 139.682 59.8147C139.357 59.8147 139.071 59.8876 138.815 60.0304C138.563 60.1732 138.364 60.3738 138.223 60.629C138.082 60.8842 138.009 61.1759 138.009 61.504C138.009 61.8321 138.082 62.1238 138.223 62.379C138.364 62.6343 138.563 62.8348 138.815 62.9776C139.068 63.1204 139.357 63.1933 139.682 63.1933C140.205 63.1933 140.641 62.9837 140.996 62.5674L141.772 63.2905C141.523 63.5974 141.216 63.8313 140.846 63.9924C140.476 64.1534 140.067 64.2324 139.616 64.2324C139.083 64.2324 138.602 64.1169 138.172 63.883Z" fill="#ECE7E1"/>
<path d="M146.504 59.8603H144.831V64.1413H143.637V59.8603H141.974V58.8638H146.504V59.8603Z" fill="#ECE7E1"/>
<path d="M151.617 61.8565C151.786 62.0722 151.87 62.3396 151.87 62.6555C151.87 63.1234 151.695 63.488 151.343 63.7493C150.992 64.0106 150.492 64.1413 149.839 64.1413H147.265V58.8638H149.698C150.306 58.8638 150.778 58.9823 151.115 59.2192C151.452 59.4562 151.623 59.7935 151.623 60.231C151.623 60.4923 151.56 60.7232 151.428 60.9207C151.298 61.1182 151.118 61.2762 150.883 61.3916C151.202 61.4858 151.446 61.6438 151.614 61.8595L151.617 61.8565ZM148.468 61.0513H149.596C149.861 61.0513 150.059 60.9966 150.194 60.8903C150.33 60.7809 150.396 60.6229 150.396 60.4103C150.396 60.1976 150.327 60.0457 150.191 59.9363C150.053 59.8269 149.858 59.7692 149.599 59.7692H148.471V61.0513H148.468ZM150.649 62.5583C150.649 62.1208 150.366 61.9021 149.797 61.9021H148.468V63.2359H149.797C150.366 63.2359 150.649 63.011 150.649 62.5583Z" fill="#ECE7E1"/>
<path d="M156.364 63.011H153.939L153.476 64.1413H152.237L154.565 58.8638H155.759L158.096 64.1413H156.827L156.364 63.011ZM155.982 62.0843L155.155 60.0639L154.327 62.0843H155.985H155.982Z" fill="#ECE7E1"/>
<path d="M0 19.3111L10.0888 9.11768L25.8987 9.16629L22.5539 14.4377L6.74991 20.3958L0 19.3111Z" fill="#644C5C"/>
<path d="M0 19.3111L10.5009 9.95017L25.8987 9.16629L10.0888 9.11768L0 19.3111Z" fill="#C5B1B2"/>
<path d="M7.21004 17.0508C7.21004 17.0508 10.203 12.5055 18.9412 12.3931L19.9639 17.072C19.9639 17.072 14.2247 17.3272 9.31262 21.195L7.20703 17.0508H7.21004Z" fill="#C5B1B2"/>
<path d="M6.71686 23.58L6.4311 23.4402C6.4311 23.4402 6.85523 22.3981 6.36492 17.6493C6.01299 14.2282 6.26566 12.9126 6.49126 12.4082C6.56345 12.2502 6.78003 12.2351 6.86726 12.387L6.78604 12.2502L6.87929 12.3809C6.87929 12.3809 6.20249 13.0129 6.67775 17.6189C7.1831 22.5257 6.7319 23.5405 6.71385 23.583" fill="#839389"/>
<path d="M5.69092 24.1391C5.83831 23.7228 6.19626 22.5743 6.71965 22.708C7.24304 22.8417 7.50774 23.7502 6.69257 24.8652L6.65648 24.4429C6.65648 24.4429 6.60534 24.9229 5.90749 25.4151L6.30454 24.5006C6.30454 24.5006 5.8353 25.1842 5.37207 25.3058L5.97668 24.37L5.4593 24.8075C5.4593 24.8075 5.52548 24.61 5.69092 24.1391Z" fill="#644C5C"/>
<path d="M131.076 5.51133C129.614 5.16192 128.525 6.14329 127.939 7.37379C127.707 6.59599 127.367 5.85769 126.748 5.30472C126.044 4.67884 125.042 4.40539 124.161 4.79125C121.98 5.7392 122.41 8.48884 123.21 10.2298C123.367 10.5701 123.541 10.8952 123.725 11.2172C123.55 11.0835 123.376 10.9529 123.195 10.8253C121.896 9.93203 119.011 8.37947 118.003 10.5123C117.068 12.4933 119.188 14.4165 120.75 15.1791C122.912 16.2395 125.463 16.6041 127.839 16.6952C128.056 16.7044 128.194 16.6041 128.261 16.4613C128.387 16.4674 128.501 16.4309 128.594 16.358C128.697 16.3398 128.799 16.2972 128.889 16.2061C130.538 14.5107 131.975 12.4173 132.739 10.1538C133.296 8.49796 133.137 6.00353 131.076 5.51133ZM122.022 14.5472C121.174 14.2282 120.329 13.8058 119.688 13.1435C119.194 12.63 118.464 11.4633 119.101 10.7919C119.742 10.1174 121.053 10.8162 121.688 11.1595C122.491 11.594 123.219 12.1621 123.908 12.7607C124.961 13.6722 125.938 14.6657 126.994 15.5711C125.31 15.4526 123.598 15.1366 122.022 14.5441M127.572 14.4135C126.495 13.2802 125.469 12.0953 124.678 10.7372C124.203 9.92291 123.761 8.9932 123.631 8.04829C123.511 7.16719 123.761 6.00353 124.732 5.73312C125.674 5.46879 126.423 6.39243 126.742 7.16719C127.084 8.00272 127.241 8.92636 127.388 9.82265C127.271 11.3357 127.34 12.9095 127.572 14.4165M131.987 8.61038C131.936 9.4216 131.599 10.1964 131.263 10.9225C130.64 12.2563 129.834 13.4807 128.889 14.5958C128.865 13.0189 128.733 11.4481 128.477 9.89253C128.51 9.0965 128.591 8.24274 129.001 7.55305C129.383 6.90894 130.174 6.32862 130.944 6.59599C131.732 6.86944 132.036 7.84777 131.987 8.61038Z" fill="#C99D7A"/>
</g>
<defs>
<clipPath id="clip0_881_12">
<rect width="185" height="75" fill="white"/>
</clipPath>
</defs>
</svg>
